<?xml version="1.0" encoding="UTF-8" standalone="no"?>
<!DOCTYPE svg PUBLIC "-//W3C//DTD SVG 1.1//EN"
 "http://www.w3.org/Graphics/SVG/1.1/DTD/svg11.dtd">
<!-- Generated by graphviz version 11.0.0 (20240428.1522)
 -->
<!-- Title: graphname Pages: 1 -->
<svg width="1192pt" height="623pt"
 viewBox="0.00 0.00 1192.00 623.00" xmlns="http://www.w3.org/2000/svg" xmlns:xlink="http://www.w3.org/1999/xlink">
<g id="graph0" class="graph" transform="scale(1 1) rotate(0) translate(4 619)">
<title>graphname</title>
<polygon fill="white" stroke="none" points="-4,4 -4,-619 1188,-619 1188,4 -4,4"/>
<g id="clust2" class="cluster">
<title>cluster_1</title>
<polygon fill="none" stroke="black" points="8,-8 8,-570 1176,-570 1176,-8 8,-8"/>
<text text-anchor="middle" x="592" y="-552.7" font-family="Times,serif" font-size="14.00">src</text>
</g>
<g id="clust3" class="cluster">
<title>cluster_2</title>
<polygon fill="none" stroke="black" points="113,-16 113,-179 337,-179 337,-16 113,-16"/>
<text text-anchor="middle" x="225" y="-161.7" font-family="Times,serif" font-size="14.00">components</text>
</g>
<g id="clust4" class="cluster">
<title>cluster_3</title>
<polygon fill="none" stroke="black" points="168,-337.5 168,-415 692,-415 692,-337.5 168,-337.5"/>
<text text-anchor="middle" x="430" y="-397.7" font-family="Times,serif" font-size="14.00">controllers</text>
</g>
<g id="clust5" class="cluster">
<title>cluster_4</title>
<polygon fill="none" stroke="black" points="555,-101.5 555,-329.5 762,-329.5 762,-101.5 555,-101.5"/>
<text text-anchor="middle" x="658.5" y="-312.2" font-family="Times,serif" font-size="14.00">dao</text>
</g>
<g id="clust6" class="cluster">
<title>cluster_5</title>
<polygon fill="none" stroke="black" points="770,-16 770,-93.5 840,-93.5 840,-16 770,-16"/>
<text text-anchor="middle" x="805" y="-76.2" font-family="Times,serif" font-size="14.00">db</text>
</g>
<g id="clust7" class="cluster">
<title>cluster_6</title>
<polygon fill="none" stroke="black" points="345,-16 345,-93.5 762,-93.5 762,-16 345,-16"/>
<text text-anchor="middle" x="553.5" y="-76.2" font-family="Times,serif" font-size="14.00">errors</text>
</g>
<g id="clust8" class="cluster">
<title>cluster_7</title>
<polygon fill="none" stroke="black" points="700,-337.5 700,-492.5 1156,-492.5 1156,-337.5 700,-337.5"/>
<text text-anchor="middle" x="928" y="-475.2" font-family="Times,serif" font-size="14.00">routers</text>
</g>
<!-- index.ts -->
<g id="node1" class="node">
<title>index.ts</title>
<polygon fill="orange" stroke="black" points="903.62,-578.5 903.62,-614.5 962.38,-614.5 962.38,-578.5 903.62,-578.5"/>
<text text-anchor="middle" x="933" y="-591.45" font-family="Times,serif" font-size="14.00">index.ts</text>
</g>
<!-- src/routes.ts -->
<g id="node2" class="node">
<title>src/routes.ts</title>
<polygon fill="none" stroke="black" points="902.12,-501 902.12,-537 963.88,-537 963.88,-501 902.12,-501"/>
<text text-anchor="middle" x="933" y="-513.95" font-family="Times,serif" font-size="14.00">routes.ts</text>
</g>
<!-- index.ts&#45;&gt;src/routes.ts -->
<g id="edge1" class="edge">
<title>index.ts&#45;&gt;src/routes.ts</title>
<path fill="none" stroke="orange" d="M933,-578.37C933,-569.55 933,-558.57 933,-548.51"/>
<polygon fill="orange" stroke="orange" points="936.5,-548.84 933,-538.84 929.5,-548.84 936.5,-548.84"/>
</g>
<!-- src/helper.ts -->
<g id="node3" class="node">
<title>src/helper.ts</title>
<polygon fill="none" stroke="black" points="76.12,-346 76.12,-382 137.88,-382 137.88,-346 76.12,-346"/>
<text text-anchor="middle" x="107" y="-358.95" font-family="Times,serif" font-size="14.00">helper.ts</text>
</g>
<!-- src/routes.ts&#45;&gt;src/helper.ts -->
<g id="edge2" class="edge">
<title>src/routes.ts&#45;&gt;src/helper.ts</title>
<path fill="none" stroke="#38064d" d="M901.9,-515C856.57,-510.54 769.71,-501.71 696,-492.5 453.67,-462.21 367.51,-529.88 152,-415 141.44,-409.37 132.13,-400.25 124.76,-391.32"/>
<polygon fill="#38064d" stroke="#38064d" points="127.59,-389.25 118.72,-383.45 122.03,-393.51 127.59,-389.25"/>
</g>
<!-- src/routers/auth.ts -->
<g id="node4" class="node">
<title>src/routers/auth.ts</title>
<polygon fill="none" stroke="black" points="840,-346 840,-382 894,-382 894,-346 840,-346"/>
<text text-anchor="middle" x="867" y="-358.95" font-family="Times,serif" font-size="14.00">auth.ts</text>
</g>
<!-- src/routes.ts&#45;&gt;src/routers/auth.ts -->
<g id="edge3" class="edge">
<title>src/routes.ts&#45;&gt;src/routers/auth.ts</title>
<path fill="none" stroke="#38064d" d="M964.28,-516.71C1022.87,-513.97 1144.39,-506.63 1157,-492.5 1177.57,-469.46 1176.58,-446.89 1157,-423 1125.63,-384.73 977.07,-371.21 905.59,-366.86"/>
<polygon fill="#38064d" stroke="#38064d" points="906.1,-363.39 895.92,-366.31 905.7,-370.37 906.1,-363.39"/>
</g>
<!-- src/routers/userRoutes.ts -->
<g id="node5" class="node">
<title>src/routers/userRoutes.ts</title>
<polygon fill="none" stroke="black" points="1059.62,-423.5 1059.62,-459.5 1148.38,-459.5 1148.38,-423.5 1059.62,-423.5"/>
<text text-anchor="middle" x="1104" y="-436.45" font-family="Times,serif" font-size="14.00">userRoutes.ts</text>
</g>
<!-- src/routes.ts&#45;&gt;src/routers/userRoutes.ts -->
<g id="edge4" class="edge">
<title>src/routes.ts&#45;&gt;src/routers/userRoutes.ts</title>
<path fill="none" stroke="#38064d" d="M964.13,-515.87C988.88,-513.13 1023.74,-506.85 1051,-492.5 1062.54,-486.43 1073.37,-477.14 1082.21,-468.21"/>
<polygon fill="#38064d" stroke="#38064d" points="1084.7,-470.67 1088.98,-460.98 1079.59,-465.88 1084.7,-470.67"/>
</g>
<!-- src/routers/productRoutes.ts -->
<g id="node6" class="node">
<title>src/routers/productRoutes.ts</title>
<polygon fill="none" stroke="black" points="708.25,-423.5 708.25,-459.5 815.75,-459.5 815.75,-423.5 708.25,-423.5"/>
<text text-anchor="middle" x="762" y="-436.45" font-family="Times,serif" font-size="14.00">productRoutes.ts</text>
</g>
<!-- src/routes.ts&#45;&gt;src/routers/productRoutes.ts -->
<g id="edge5" class="edge">
<title>src/routes.ts&#45;&gt;src/routers/productRoutes.ts</title>
<path fill="none" stroke="#38064d" d="M902,-514.36C879.72,-510.88 849.44,-504.35 825,-492.5 811.75,-486.08 798.72,-476.46 787.98,-467.37"/>
<polygon fill="#38064d" stroke="#38064d" points="790.5,-464.92 780.69,-460.94 785.88,-470.18 790.5,-464.92"/>
</g>
<!-- src/routers/cartRoutes.ts -->
<g id="node7" class="node">
<title>src/routers/cartRoutes.ts</title>
<polygon fill="none" stroke="black" points="833.75,-423.5 833.75,-459.5 920.25,-459.5 920.25,-423.5 833.75,-423.5"/>
<text text-anchor="middle" x="877" y="-436.45" font-family="Times,serif" font-size="14.00">cartRoutes.ts</text>
</g>
<!-- src/routes.ts&#45;&gt;src/routers/cartRoutes.ts -->
<g id="edge6" class="edge">
<title>src/routes.ts&#45;&gt;src/routers/cartRoutes.ts</title>
<path fill="none" stroke="#38064d" d="M920.29,-500.87C913.33,-491.47 904.54,-479.62 896.7,-469.06"/>
<polygon fill="#38064d" stroke="#38064d" points="899.52,-466.99 890.75,-461.04 893.9,-471.16 899.52,-466.99"/>
</g>
<!-- src/routers/reviewRoutes.ts -->
<g id="node8" class="node">
<title>src/routers/reviewRoutes.ts</title>
<polygon fill="none" stroke="black" points="938.5,-423.5 938.5,-459.5 1041.5,-459.5 1041.5,-423.5 938.5,-423.5"/>
<text text-anchor="middle" x="990" y="-436.45" font-family="Times,serif" font-size="14.00">reviewRoutes.ts</text>
</g>
<!-- src/routes.ts&#45;&gt;src/routers/reviewRoutes.ts -->
<g id="edge7" class="edge">
<title>src/routes.ts&#45;&gt;src/routers/reviewRoutes.ts</title>
<path fill="none" stroke="#38064d" d="M945.93,-500.87C953.1,-491.38 962.16,-479.38 970.19,-468.74"/>
<polygon fill="#38064d" stroke="#38064d" points="972.78,-471.12 976.01,-461.03 967.19,-466.91 972.78,-471.12"/>
</g>
<!-- src/components/user.ts -->
<g id="node9" class="node">
<title>src/components/user.ts</title>
<polygon fill="none" stroke="black" points="193,-110 193,-146 247,-146 247,-110 193,-110"/>
<text text-anchor="middle" x="219.75" y="-122.95" font-family="Times,serif" font-size="14.00">user.ts</text>
</g>
<!-- src/routers/auth.ts&#45;&gt;src/components/user.ts -->
<g id="edge8" class="edge">
<title>src/routers/auth.ts&#45;&gt;src/components/user.ts</title>
<path fill="none" stroke="#98998b" d="M839.56,-358.1C805.86,-352.28 746.91,-342.69 696,-337.5 663.9,-334.23 581.69,-339.49 551,-329.5 468.95,-302.78 457.94,-274.55 388,-224 366.74,-208.63 366.32,-196.86 342,-187 306.42,-172.58 289.32,-198.07 256,-179 246.69,-173.67 239.15,-164.85 233.42,-156.08"/>
<polygon fill="#98998b" stroke="#98998b" points="236.58,-154.55 228.5,-147.71 230.55,-158.1 236.58,-154.55"/>
</g>
<!-- src/dao/userDAO.ts -->
<g id="node10" class="node">
<title>src/dao/userDAO.ts</title>
<polygon fill="none" stroke="black" points="673.75,-110 673.75,-146 754.25,-146 754.25,-110 673.75,-110"/>
<text text-anchor="middle" x="714" y="-122.95" font-family="Times,serif" font-size="14.00">userDAO.ts</text>
</g>
<!-- src/routers/auth.ts&#45;&gt;src/dao/userDAO.ts -->
<g id="edge9" class="edge">
<title>src/routers/auth.ts&#45;&gt;src/dao/userDAO.ts</title>
<path fill="none" stroke="#98998b" d="M860.66,-345.56C848.15,-312.52 817.96,-239.42 778,-187 768.75,-174.86 756.73,-163.21 745.62,-153.57"/>
<polygon fill="#98998b" stroke="#98998b" points="748.03,-151.03 738.13,-147.28 743.53,-156.39 748.03,-151.03"/>
</g>
<!-- src/utilities.ts -->
<g id="node11" class="node">
<title>src/utilities.ts</title>
<polygon fill="none" stroke="black" points="258.38,-187.5 258.38,-223.5 327.62,-223.5 327.62,-187.5 258.38,-187.5"/>
<text text-anchor="middle" x="293" y="-200.45" font-family="Times,serif" font-size="14.00">utilities.ts</text>
</g>
<!-- src/routers/auth.ts&#45;&gt;src/utilities.ts -->
<g id="edge10" class="edge">
<title>src/routers/auth.ts&#45;&gt;src/utilities.ts</title>
<path fill="none" stroke="#98998b" d="M839.58,-357.83C805.91,-351.72 746.99,-341.86 696,-337.5 676.4,-335.82 358.16,-340.72 342,-329.5 333.8,-323.8 314.14,-269.12 302.36,-234.61"/>
<polygon fill="#98998b" stroke="#98998b" points="305.71,-233.57 299.19,-225.21 299.08,-235.81 305.71,-233.57"/>
</g>
<!-- src/routers/userRoutes.ts&#45;&gt;src/helper.ts -->
<g id="edge17" class="edge">
<title>src/routers/userRoutes.ts&#45;&gt;src/helper.ts</title>
<path fill="none" stroke="#d424ef" d="M1059.13,-424.64C1056.4,-424 1053.68,-423.44 1051,-423 1026.36,-418.92 174.77,-425.26 152,-415 140.82,-409.96 131.24,-400.64 123.83,-391.41"/>
<polygon fill="#d424ef" stroke="#d424ef" points="126.81,-389.55 118.06,-383.58 121.17,-393.7 126.81,-389.55"/>
</g>
<!-- src/routers/userRoutes.ts&#45;&gt;src/routers/auth.ts -->
<g id="edge15" class="edge">
<title>src/routers/userRoutes.ts&#45;&gt;src/routers/auth.ts</title>
<path fill="none" stroke="#d424ef" d="M1059.19,-425.66C1056.42,-424.75 1053.67,-423.86 1051,-423 1000.74,-406.78 942.58,-388.54 905.33,-376.92"/>
<polygon fill="#d424ef" stroke="#d424ef" points="906.5,-373.62 895.91,-373.98 904.42,-380.3 906.5,-373.62"/>
</g>
<!-- src/routers/userRoutes.ts&#45;&gt;src/components/user.ts -->
<g id="edge16" class="edge">
<title>src/routers/userRoutes.ts&#45;&gt;src/components/user.ts</title>
<path fill="none" stroke="#d424ef" d="M1059.13,-424.64C1056.4,-424 1053.68,-423.44 1051,-423 1038.85,-420.99 172.67,-423.75 164,-415 140.01,-390.8 163.18,-238.64 182,-187 186.01,-176 192.45,-164.99 198.91,-155.57"/>
<polygon fill="#d424ef" stroke="#d424ef" points="201.63,-157.77 204.64,-147.61 195.96,-153.67 201.63,-157.77"/>
</g>
<!-- src/controllers/userController.ts -->
<g id="node14" class="node">
<title>src/controllers/userController.ts</title>
<polygon fill="none" stroke="black" points="436,-346 436,-382 542,-382 542,-346 436,-346"/>
<text text-anchor="middle" x="489" y="-358.95" font-family="Times,serif" font-size="14.00">userController.ts</text>
</g>
<!-- src/routers/userRoutes.ts&#45;&gt;src/controllers/userController.ts -->
<g id="edge18" class="edge">
<title>src/routers/userRoutes.ts&#45;&gt;src/controllers/userController.ts</title>
<path fill="none" stroke="#d424ef" d="M1059.13,-424.66C1056.4,-424.01 1053.68,-423.45 1051,-423 1023.61,-418.37 577.12,-424.46 551,-415 536.78,-409.85 523.39,-399.98 512.72,-390.35"/>
<polygon fill="#d424ef" stroke="#d424ef" points="515.18,-387.86 505.54,-383.48 510.35,-392.92 515.18,-387.86"/>
</g>
<!-- src/routers/productRoutes.ts&#45;&gt;src/helper.ts -->
<g id="edge23" class="edge">
<title>src/routers/productRoutes.ts&#45;&gt;src/helper.ts</title>
<path fill="none" stroke="#18f4f9" d="M707.77,-423.64C706.51,-423.41 705.25,-423.19 704,-423 673.69,-418.3 179.93,-427.68 152,-415 140.83,-409.93 131.26,-400.61 123.85,-391.37"/>
<polygon fill="#18f4f9" stroke="#18f4f9" points="126.83,-389.52 118.07,-383.55 121.19,-393.67 126.83,-389.52"/>
</g>
<!-- src/routers/productRoutes.ts&#45;&gt;src/routers/auth.ts -->
<g id="edge25" class="edge">
<title>src/routers/productRoutes.ts&#45;&gt;src/routers/auth.ts</title>
<path fill="none" stroke="#18f4f9" d="M786.09,-423.18C800.23,-413.01 818.3,-400.02 833.78,-388.89"/>
<polygon fill="#18f4f9" stroke="#18f4f9" points="835.72,-391.8 841.79,-383.12 831.63,-386.12 835.72,-391.8"/>
</g>
<!-- src/routers/productRoutes.ts&#45;&gt;src/utilities.ts -->
<g id="edge27" class="edge">
<title>src/routers/productRoutes.ts&#45;&gt;src/utilities.ts</title>
<path fill="none" stroke="#18f4f9" d="M708.03,-440.54C548.54,-440.39 89.14,-437.97 67,-415 -4.96,-340.35 162.38,-258.95 247.32,-224.02"/>
<polygon fill="#18f4f9" stroke="#18f4f9" points="248.63,-227.26 256.58,-220.26 246,-220.78 248.63,-227.26"/>
</g>
<!-- src/controllers/productController.ts -->
<g id="node15" class="node">
<title>src/controllers/productController.ts</title>
<polygon fill="none" stroke="black" points="559.62,-346 559.62,-382 684.38,-382 684.38,-346 559.62,-346"/>
<text text-anchor="middle" x="622" y="-358.95" font-family="Times,serif" font-size="14.00">productController.ts</text>
</g>
<!-- src/routers/productRoutes.ts&#45;&gt;src/controllers/productController.ts -->
<g id="edge24" class="edge">
<title>src/routers/productRoutes.ts&#45;&gt;src/controllers/productController.ts</title>
<path fill="none" stroke="#18f4f9" d="M713.14,-423.06C707.28,-420.55 701.44,-417.84 696,-415 681.65,-407.5 666.7,-397.81 654.03,-388.95"/>
<polygon fill="#18f4f9" stroke="#18f4f9" points="656.23,-386.23 646.06,-383.27 652.17,-391.93 656.23,-386.23"/>
</g>
<!-- src/components/product.ts -->
<g id="node16" class="node">
<title>src/components/product.ts</title>
<polygon fill="none" stroke="black" points="259,-24.5 259,-60.5 329,-60.5 329,-24.5 259,-24.5"/>
<text text-anchor="middle" x="294" y="-37.45" font-family="Times,serif" font-size="14.00">product.ts</text>
</g>
<!-- src/routers/productRoutes.ts&#45;&gt;src/components/product.ts -->
<g id="edge26" class="edge">
<title>src/routers/productRoutes.ts&#45;&gt;src/components/product.ts</title>
<path fill="none" stroke="#18f4f9" d="M707.84,-440.63C541.26,-440.77 46.2,-439.14 22,-415 -20.66,-372.44 17,-339.76 17,-279.5 17,-279.5 17,-279.5 17,-204.5 17,-99.13 168.67,-61.55 247.55,-49.12"/>
<polygon fill="#18f4f9" stroke="#18f4f9" points="247.77,-52.63 257.14,-47.69 246.73,-45.71 247.77,-52.63"/>
</g>
<!-- src/routers/cartRoutes.ts&#45;&gt;src/helper.ts -->
<g id="edge36" class="edge">
<title>src/routers/cartRoutes.ts&#45;&gt;src/helper.ts</title>
<path fill="none" stroke="#493c39" d="M833.27,-424.71C830.5,-424.04 827.72,-423.46 825,-423 788.14,-416.74 186.07,-430.42 152,-415 140.83,-409.94 131.25,-400.62 123.84,-391.39"/>
<polygon fill="#493c39" stroke="#493c39" points="126.82,-389.53 118.07,-383.56 121.18,-393.69 126.82,-389.53"/>
</g>
<!-- src/routers/cartRoutes.ts&#45;&gt;src/routers/auth.ts -->
<g id="edge38" class="edge">
<title>src/routers/cartRoutes.ts&#45;&gt;src/routers/auth.ts</title>
<path fill="none" stroke="#493c39" d="M874.73,-423.37C873.56,-414.55 872.11,-403.57 870.78,-393.51"/>
<polygon fill="#493c39" stroke="#493c39" points="874.28,-393.28 869.49,-383.83 867.34,-394.2 874.28,-393.28"/>
</g>
<!-- src/controllers/cartController.ts -->
<g id="node19" class="node">
<title>src/controllers/cartController.ts</title>
<polygon fill="none" stroke="black" points="176.12,-346 176.12,-382 279.88,-382 279.88,-346 176.12,-346"/>
<text text-anchor="middle" x="228" y="-358.95" font-family="Times,serif" font-size="14.00">cartController.ts</text>
</g>
<!-- src/routers/cartRoutes.ts&#45;&gt;src/controllers/cartController.ts -->
<g id="edge37" class="edge">
<title>src/routers/cartRoutes.ts&#45;&gt;src/controllers/cartController.ts</title>
<path fill="none" stroke="#493c39" d="M833.27,-424.72C830.5,-424.05 827.72,-423.47 825,-423 795.65,-417.97 316.97,-425.23 289,-415 274.93,-409.85 261.75,-399.98 251.27,-390.35"/>
<polygon fill="#493c39" stroke="#493c39" points="253.83,-387.96 244.22,-383.49 248.94,-392.98 253.83,-387.96"/>
</g>
<!-- src/components/cart.ts -->
<g id="node20" class="node">
<title>src/components/cart.ts</title>
<polygon fill="none" stroke="black" points="121,-110 121,-146 175,-146 175,-110 121,-110"/>
<text text-anchor="middle" x="148" y="-122.95" font-family="Times,serif" font-size="14.00">cart.ts</text>
</g>
<!-- src/routers/cartRoutes.ts&#45;&gt;src/components/cart.ts -->
<g id="edge39" class="edge">
<title>src/routers/cartRoutes.ts&#45;&gt;src/components/cart.ts</title>
<path fill="none" stroke="#493c39" d="M833.28,-424.71C830.5,-424.04 827.72,-423.46 825,-423 814.55,-421.23 69.45,-422.53 62,-415 -10.23,-342.01 80.76,-210.79 125.67,-155.12"/>
<polygon fill="#493c39" stroke="#493c39" points="128.35,-157.36 132,-147.41 122.94,-152.92 128.35,-157.36"/>
</g>
<!-- src/routers/reviewRoutes.ts&#45;&gt;src/helper.ts -->
<g id="edge51" class="edge">
<title>src/routers/reviewRoutes.ts&#45;&gt;src/helper.ts</title>
<path fill="none" stroke="#f47699" d="M938.29,-424.64C935.17,-424 932.05,-423.45 929,-423 907.64,-419.88 171.67,-423.88 152,-415 140.82,-409.95 131.25,-400.64 123.83,-391.4"/>
<polygon fill="#f47699" stroke="#f47699" points="126.81,-389.54 118.06,-383.57 121.18,-393.7 126.81,-389.54"/>
</g>
<!-- src/routers/reviewRoutes.ts&#45;&gt;src/routers/auth.ts -->
<g id="edge53" class="edge">
<title>src/routers/reviewRoutes.ts&#45;&gt;src/routers/auth.ts</title>
<path fill="none" stroke="#f47699" d="M961.78,-423.18C944.59,-412.62 922.43,-399.02 903.86,-387.62"/>
<polygon fill="#f47699" stroke="#f47699" points="905.89,-384.76 895.53,-382.51 902.22,-390.73 905.89,-384.76"/>
</g>
<!-- src/controllers/reviewController.ts -->
<g id="node23" class="node">
<title>src/controllers/reviewController.ts</title>
<polygon fill="none" stroke="black" points="297.88,-346 297.88,-382 418.12,-382 418.12,-346 297.88,-346"/>
<text text-anchor="middle" x="358" y="-358.95" font-family="Times,serif" font-size="14.00">reviewController.ts</text>
</g>
<!-- src/routers/reviewRoutes.ts&#45;&gt;src/controllers/reviewController.ts -->
<g id="edge52" class="edge">
<title>src/routers/reviewRoutes.ts&#45;&gt;src/controllers/reviewController.ts</title>
<path fill="none" stroke="#f47699" d="M938.29,-424.66C935.16,-424.02 932.05,-423.45 929,-423 901.41,-418.9 453.46,-423.81 427,-415 411.34,-409.78 396.23,-399.62 384.16,-389.81"/>
<polygon fill="#f47699" stroke="#f47699" points="386.59,-387.28 376.71,-383.45 382.04,-392.6 386.59,-387.28"/>
</g>
<!-- src/dao/userDAO.ts&#45;&gt;src/components/user.ts -->
<g id="edge12" class="edge">
<title>src/dao/userDAO.ts&#45;&gt;src/components/user.ts</title>
<path fill="none" stroke="#bbf911" d="M701.27,-146.44C690.03,-160.61 672.16,-178.51 651,-183 630.02,-187.45 285.98,-187.45 265,-183 250.76,-179.98 240.09,-168.06 232.72,-156.09"/>
<polygon fill="#bbf911" stroke="#bbf911" points="235.91,-154.63 228.03,-147.54 229.77,-157.99 235.91,-154.63"/>
</g>
<!-- src/db/db.ts -->
<g id="node12" class="node">
<title>src/db/db.ts</title>
<polygon fill="none" stroke="black" points="778,-24.5 778,-60.5 832,-60.5 832,-24.5 778,-24.5"/>
<text text-anchor="middle" x="804.62" y="-37.45" font-family="Times,serif" font-size="14.00">db.ts</text>
</g>
<!-- src/dao/userDAO.ts&#45;&gt;src/db/db.ts -->
<g id="edge11" class="edge">
<title>src/dao/userDAO.ts&#45;&gt;src/db/db.ts</title>
<path fill="none" stroke="#bbf911" d="M744.67,-109.66C752.01,-104.88 759.58,-99.37 766,-93.5 773.59,-86.56 780.84,-78.03 786.98,-69.99"/>
<polygon fill="#bbf911" stroke="#bbf911" points="789.66,-72.26 792.74,-62.12 784.01,-68.12 789.66,-72.26"/>
</g>
<!-- src/errors/userError.ts -->
<g id="node13" class="node">
<title>src/errors/userError.ts</title>
<polygon fill="none" stroke="black" points="674.5,-24.5 674.5,-60.5 753.5,-60.5 753.5,-24.5 674.5,-24.5"/>
<text text-anchor="middle" x="714" y="-37.45" font-family="Times,serif" font-size="14.00">userError.ts</text>
</g>
<!-- src/dao/userDAO.ts&#45;&gt;src/errors/userError.ts -->
<g id="edge13" class="edge">
<title>src/dao/userDAO.ts&#45;&gt;src/errors/userError.ts</title>
<path fill="none" stroke="#bbf911" d="M714,-109.7C714,-98.84 714,-84.57 714,-72.06"/>
<polygon fill="#bbf911" stroke="#bbf911" points="717.5,-72.29 714,-62.29 710.5,-72.29 717.5,-72.29"/>
</g>
<!-- src/utilities.ts&#45;&gt;src/components/user.ts -->
<g id="edge14" class="edge">
<title>src/utilities.ts&#45;&gt;src/components/user.ts</title>
<path fill="none" stroke="#76bdaa" d="M265.48,-187.14C262.15,-184.58 258.9,-181.84 256,-179 248.94,-172.08 242.28,-163.64 236.66,-155.68"/>
<polygon fill="#76bdaa" stroke="#76bdaa" points="239.7,-153.93 231.21,-147.6 233.9,-157.84 239.7,-153.93"/>
</g>
<!-- src/controllers/userController.ts&#45;&gt;src/components/user.ts -->
<g id="edge19" class="edge">
<title>src/controllers/userController.ts&#45;&gt;src/components/user.ts</title>
<path fill="none" stroke="#7d6bc6" d="M452.64,-345.57C444.38,-342.32 435.53,-339.36 427,-337.5 415.97,-335.09 231.9,-337.56 224,-329.5 212.27,-317.54 215.92,-210.19 218.45,-157.68"/>
<polygon fill="#7d6bc6" stroke="#7d6bc6" points="221.93,-158.15 218.94,-147.99 214.94,-157.8 221.93,-158.15"/>
</g>
<!-- src/controllers/userController.ts&#45;&gt;src/dao/userDAO.ts -->
<g id="edge20" class="edge">
<title>src/controllers/userController.ts&#45;&gt;src/dao/userDAO.ts</title>
<path fill="none" stroke="#7d6bc6" d="M525.36,-345.56C533.62,-342.31 542.47,-339.35 551,-337.5 562.52,-335 754.82,-337.99 763,-329.5 809,-281.73 762.88,-198.23 733.79,-155.64"/>
<polygon fill="#7d6bc6" stroke="#7d6bc6" points="736.83,-153.88 728.22,-147.7 731.1,-157.9 736.83,-153.88"/>
</g>
<!-- src/controllers/userController.ts&#45;&gt;src/utilities.ts -->
<g id="edge22" class="edge">
<title>src/controllers/userController.ts&#45;&gt;src/utilities.ts</title>
<path fill="none" stroke="#7d6bc6" d="M451.92,-345.53C443.86,-342.37 435.27,-339.45 427,-337.5 415.29,-334.73 328.06,-337.42 319,-329.5 292.54,-306.38 289.08,-263.69 290.15,-235.19"/>
<polygon fill="#7d6bc6" stroke="#7d6bc6" points="293.63,-235.65 290.75,-225.46 286.64,-235.22 293.63,-235.65"/>
</g>
<!-- src/controllers/userController.ts&#45;&gt;src/errors/userError.ts -->
<g id="edge21" class="edge">
<title>src/controllers/userController.ts&#45;&gt;src/errors/userError.ts</title>
<path fill="none" stroke="#7d6bc6" d="M486.95,-345.83C482.35,-298.32 476.83,-164.45 551,-101.5 570.53,-84.92 642.8,-104.36 666,-93.5 677.56,-88.09 687.79,-78.58 695.79,-69.29"/>
<polygon fill="#7d6bc6" stroke="#7d6bc6" points="698.29,-71.77 701.82,-61.78 692.83,-67.39 698.29,-71.77"/>
</g>
<!-- src/controllers/productController.ts&#45;&gt;src/components/product.ts -->
<g id="edge28" class="edge">
<title>src/controllers/productController.ts&#45;&gt;src/components/product.ts</title>
<path fill="none" stroke="#e799dc" d="M575.96,-345.55C567.17,-341.07 558.41,-335.73 551,-329.5 522.06,-305.19 530.37,-284.97 502,-260 476.33,-237.41 460.18,-246 434,-224 426.67,-217.84 350.72,-118.25 313.86,-69.7"/>
<polygon fill="#e799dc" stroke="#e799dc" points="316.79,-67.77 307.96,-61.92 311.21,-72 316.79,-67.77"/>
</g>
<!-- src/dao/productDAO.ts -->
<g id="node17" class="node">
<title>src/dao/productDAO.ts</title>
<polygon fill="none" stroke="black" points="606.38,-187.5 606.38,-223.5 705.62,-223.5 705.62,-187.5 606.38,-187.5"/>
<text text-anchor="middle" x="656" y="-200.45" font-family="Times,serif" font-size="14.00">productDAO.ts</text>
</g>
<!-- src/controllers/productController.ts&#45;&gt;src/dao/productDAO.ts -->
<g id="edge29" class="edge">
<title>src/controllers/productController.ts&#45;&gt;src/dao/productDAO.ts</title>
<path fill="none" stroke="#e799dc" d="M667.74,-345.54C676.99,-342.5 686.73,-339.63 696,-337.5 710.62,-334.15 753.05,-340.71 763,-329.5 783.51,-306.4 779.24,-286.28 763,-260 752.46,-242.94 734.65,-231.14 716.55,-223.06"/>
<polygon fill="#e799dc" stroke="#e799dc" points="717.9,-219.83 707.32,-219.29 715.25,-226.31 717.9,-219.83"/>
</g>
<!-- src/dao/productDAO.ts&#45;&gt;src/components/user.ts -->
<g id="edge32" class="edge">
<title>src/dao/productDAO.ts&#45;&gt;src/components/user.ts</title>
<path fill="none" stroke="#00516f" d="M606.16,-199.6C564.89,-195.69 504.68,-190.33 452,-187 430.25,-185.62 275.19,-189.33 256,-179 246.42,-173.84 238.77,-164.89 233.03,-155.97"/>
<polygon fill="#00516f" stroke="#00516f" points="236.13,-154.35 228.11,-147.43 230.07,-157.85 236.13,-154.35"/>
</g>
<!-- src/dao/productDAO.ts&#45;&gt;src/dao/userDAO.ts -->
<g id="edge33" class="edge">
<title>src/dao/productDAO.ts&#45;&gt;src/dao/userDAO.ts</title>
<path fill="none" stroke="#00516f" d="M669.16,-187.37C676.45,-177.88 685.67,-165.88 693.85,-155.24"/>
<polygon fill="#00516f" stroke="#00516f" points="696.45,-157.59 699.77,-147.53 690.9,-153.32 696.45,-157.59"/>
</g>
<!-- src/dao/productDAO.ts&#45;&gt;src/db/db.ts -->
<g id="edge30" class="edge">
<title>src/dao/productDAO.ts&#45;&gt;src/db/db.ts</title>
<path fill="none" stroke="#00516f" d="M651.52,-187.13C646.73,-164.09 642.57,-123.75 665,-101.5 680.98,-85.64 746.17,-104.17 766,-93.5 775.82,-88.21 783.98,-79.28 790.25,-70.41"/>
<polygon fill="#00516f" stroke="#00516f" points="793.03,-72.57 795.49,-62.26 787.14,-68.78 793.03,-72.57"/>
</g>
<!-- src/dao/productDAO.ts&#45;&gt;src/components/product.ts -->
<g id="edge31" class="edge">
<title>src/dao/productDAO.ts&#45;&gt;src/components/product.ts</title>
<path fill="none" stroke="#00516f" d="M626.65,-187.1C584.82,-163.23 504.92,-121.08 431,-101.5 392.18,-91.22 377.12,-111.06 341,-93.5 329.91,-88.11 320.11,-78.9 312.36,-69.85"/>
<polygon fill="#00516f" stroke="#00516f" points="315.23,-67.84 306.27,-62.18 309.75,-72.19 315.23,-67.84"/>
</g>
<!-- src/errors/productError.ts -->
<g id="node18" class="node">
<title>src/errors/productError.ts</title>
<polygon fill="none" stroke="black" points="559.12,-24.5 559.12,-60.5 656.88,-60.5 656.88,-24.5 559.12,-24.5"/>
<text text-anchor="middle" x="608" y="-37.45" font-family="Times,serif" font-size="14.00">productError.ts</text>
</g>
<!-- src/dao/productDAO.ts&#45;&gt;src/errors/productError.ts -->
<g id="edge34" class="edge">
<title>src/dao/productDAO.ts&#45;&gt;src/errors/productError.ts</title>
<path fill="none" stroke="#00516f" d="M650.86,-187.27C642.6,-159.55 626.27,-104.79 616.33,-71.43"/>
<polygon fill="#00516f" stroke="#00516f" points="619.74,-70.64 613.53,-62.06 613.04,-72.64 619.74,-70.64"/>
</g>
<!-- src/controllers/cartController.ts&#45;&gt;src/components/user.ts -->
<g id="edge40" class="edge">
<title>src/controllers/cartController.ts&#45;&gt;src/components/user.ts</title>
<path fill="none" stroke="#cb1c89" d="M205.17,-345.58C200.63,-340.9 196.5,-335.46 194,-329.5 169.55,-271.08 180.75,-248.93 194,-187 196.21,-176.68 200.39,-165.99 204.77,-156.63"/>
<polygon fill="#cb1c89" stroke="#cb1c89" points="207.88,-158.23 209.21,-147.72 201.62,-155.1 207.88,-158.23"/>
</g>
<!-- src/controllers/cartController.ts&#45;&gt;src/components/cart.ts -->
<g id="edge41" class="edge">
<title>src/controllers/cartController.ts&#45;&gt;src/components/cart.ts</title>
<path fill="none" stroke="#cb1c89" d="M190.97,-345.61C184.78,-341.17 179.06,-335.82 175,-329.5 140.98,-276.48 141.38,-199.32 144.66,-157.89"/>
<polygon fill="#cb1c89" stroke="#cb1c89" points="148.14,-158.27 145.58,-147.99 141.17,-157.62 148.14,-158.27"/>
</g>
<!-- src/dao/cartDAO.ts -->
<g id="node21" class="node">
<title>src/dao/cartDAO.ts</title>
<polygon fill="none" stroke="black" points="562.88,-260.5 562.88,-296.5 641.12,-296.5 641.12,-260.5 562.88,-260.5"/>
<text text-anchor="middle" x="602" y="-273.45" font-family="Times,serif" font-size="14.00">cartDAO.ts</text>
</g>
<!-- src/controllers/cartController.ts&#45;&gt;src/dao/cartDAO.ts -->
<g id="edge42" class="edge">
<title>src/controllers/cartController.ts&#45;&gt;src/dao/cartDAO.ts</title>
<path fill="none" stroke="#cb1c89" d="M266.27,-345.55C273.71,-342.57 281.52,-339.73 289,-337.5 379.75,-310.46 489.23,-293.63 551.72,-285.46"/>
<polygon fill="#cb1c89" stroke="#cb1c89" points="551.85,-288.97 561.32,-284.23 550.96,-282.03 551.85,-288.97"/>
</g>
<!-- src/components/cart.ts&#45;&gt;src/components/product.ts -->
<g id="edge43" class="edge">
<title>src/components/cart.ts&#45;&gt;src/components/product.ts</title>
<path fill="none" stroke="#243b14" d="M171.72,-109.54C175.76,-106.76 179.95,-103.99 184,-101.5 204.68,-88.8 228.41,-76.07 248.52,-65.79"/>
<polygon fill="#243b14" stroke="#243b14" points="249.98,-68.97 257.32,-61.33 246.82,-62.72 249.98,-68.97"/>
</g>
<!-- src/dao/cartDAO.ts&#45;&gt;src/components/user.ts -->
<g id="edge44" class="edge">
<title>src/dao/cartDAO.ts&#45;&gt;src/components/user.ts</title>
<path fill="none" stroke="#d64df1" d="M562.47,-268.01C529.21,-259.16 480.97,-244.28 442,-224 417.48,-211.24 417.99,-196.43 392,-187 363.54,-176.68 282.53,-193.59 256,-179 246.47,-173.76 238.82,-164.79 233.08,-155.88"/>
<polygon fill="#d64df1" stroke="#d64df1" points="236.19,-154.26 228.15,-147.36 230.13,-157.77 236.19,-154.26"/>
</g>
<!-- src/dao/cartDAO.ts&#45;&gt;src/db/db.ts -->
<g id="edge47" class="edge">
<title>src/dao/cartDAO.ts&#45;&gt;src/db/db.ts</title>
<path fill="none" stroke="#d64df1" d="M641.54,-262.36C664,-252.9 692.12,-239.57 715,-224 739.17,-207.54 747.49,-203.79 763,-179 783.92,-145.57 795.1,-100.95 800.54,-72.21"/>
<polygon fill="#d64df1" stroke="#d64df1" points="803.97,-72.9 802.27,-62.44 797.08,-71.68 803.97,-72.9"/>
</g>
<!-- src/dao/cartDAO.ts&#45;&gt;src/components/product.ts -->
<g id="edge46" class="edge">
<title>src/dao/cartDAO.ts&#45;&gt;src/components/product.ts</title>
<path fill="none" stroke="#d64df1" d="M562.63,-265.01C523.42,-250.54 464.4,-222.9 431,-179 409.46,-150.69 437.84,-124.85 411,-101.5 399.19,-91.22 354.99,-100.52 341,-93.5 329.98,-87.97 320.19,-78.74 312.43,-69.7"/>
<polygon fill="#d64df1" stroke="#d64df1" points="315.3,-67.69 306.33,-62.06 309.83,-72.06 315.3,-67.69"/>
</g>
<!-- src/dao/cartDAO.ts&#45;&gt;src/dao/productDAO.ts -->
<g id="edge48" class="edge">
<title>src/dao/cartDAO.ts&#45;&gt;src/dao/productDAO.ts</title>
<path fill="none" stroke="#d64df1" d="M615.07,-260.31C621.44,-251.94 629.23,-241.7 636.3,-232.4"/>
<polygon fill="#d64df1" stroke="#d64df1" points="638.86,-234.81 642.13,-224.73 633.29,-230.57 638.86,-234.81"/>
</g>
<!-- src/dao/cartDAO.ts&#45;&gt;src/errors/productError.ts -->
<g id="edge50" class="edge">
<title>src/dao/cartDAO.ts&#45;&gt;src/errors/productError.ts</title>
<path fill="none" stroke="#d64df1" d="M593.69,-260.12C589.26,-249.86 584.26,-236.49 582,-224 572.31,-170.42 570.61,-154.74 582,-101.5 584.21,-91.18 588.39,-80.49 592.77,-71.13"/>
<polygon fill="#d64df1" stroke="#d64df1" points="595.88,-72.73 597.21,-62.22 589.62,-69.6 595.88,-72.73"/>
</g>
<!-- src/dao/cartDAO.ts&#45;&gt;src/components/cart.ts -->
<g id="edge45" class="edge">
<title>src/dao/cartDAO.ts&#45;&gt;src/components/cart.ts</title>
<path fill="none" stroke="#d64df1" d="M562.73,-261.2C561.48,-260.78 560.23,-260.38 559,-260 486.45,-237.6 447.06,-276.28 392,-224 379.65,-212.27 395.31,-197.63 382,-187 364.79,-173.26 203.39,-189.43 184,-179 174.42,-173.85 166.77,-164.89 161.03,-155.97"/>
<polygon fill="#d64df1" stroke="#d64df1" points="164.13,-154.36 156.11,-147.44 158.07,-157.85 164.13,-154.36"/>
</g>
<!-- src/errors/cartError.ts -->
<g id="node22" class="node">
<title>src/errors/cartError.ts</title>
<polygon fill="none" stroke="black" points="352.62,-24.5 352.62,-60.5 429.38,-60.5 429.38,-24.5 352.62,-24.5"/>
<text text-anchor="middle" x="391" y="-37.45" font-family="Times,serif" font-size="14.00">cartError.ts</text>
</g>
<!-- src/dao/cartDAO.ts&#45;&gt;src/errors/cartError.ts -->
<g id="edge49" class="edge">
<title>src/dao/cartDAO.ts&#45;&gt;src/errors/cartError.ts</title>
<path fill="none" stroke="#d64df1" d="M586.48,-260.29C549.75,-219.56 457.31,-117.03 414.02,-69.03"/>
<polygon fill="#d64df1" stroke="#d64df1" points="416.85,-66.94 407.55,-61.86 411.65,-71.63 416.85,-66.94"/>
</g>
<!-- src/controllers/reviewController.ts&#45;&gt;src/components/user.ts -->
<g id="edge54" class="edge">
<title>src/controllers/reviewController.ts&#45;&gt;src/components/user.ts</title>
<path fill="none" stroke="#55d7dc" d="M315.81,-345.54C307.07,-342.45 297.83,-339.57 289,-337.5 272.68,-333.68 225.21,-341.96 214,-329.5 191.9,-304.92 205.88,-206.53 214.58,-157.32"/>
<polygon fill="#55d7dc" stroke="#55d7dc" points="217.98,-158.18 216.33,-147.71 211.09,-156.92 217.98,-158.18"/>
</g>
<!-- src/dao/reviewDAO.ts -->
<g id="node24" class="node">
<title>src/dao/reviewDAO.ts</title>
<polygon fill="none" stroke="black" points="659.62,-260.5 659.62,-296.5 754.38,-296.5 754.38,-260.5 659.62,-260.5"/>
<text text-anchor="middle" x="707" y="-273.45" font-family="Times,serif" font-size="14.00">reviewDAO.ts</text>
</g>
<!-- src/controllers/reviewController.ts&#45;&gt;src/dao/reviewDAO.ts -->
<g id="edge55" class="edge">
<title>src/controllers/reviewController.ts&#45;&gt;src/dao/reviewDAO.ts</title>
<path fill="none" stroke="#55d7dc" d="M398.61,-345.57C407.79,-342.31 417.6,-339.36 427,-337.5 451.32,-332.7 626.96,-338.65 650,-329.5 663.25,-324.24 675.49,-314.48 685.2,-304.98"/>
<polygon fill="#55d7dc" stroke="#55d7dc" points="687.6,-307.53 692,-297.9 682.55,-302.69 687.6,-307.53"/>
</g>
<!-- src/components/review.ts -->
<g id="node25" class="node">
<title>src/components/review.ts</title>
<polygon fill="none" stroke="black" points="264.62,-110 264.62,-146 329.38,-146 329.38,-110 264.62,-110"/>
<text text-anchor="middle" x="297" y="-122.95" font-family="Times,serif" font-size="14.00">review.ts</text>
</g>
<!-- src/controllers/reviewController.ts&#45;&gt;src/components/review.ts -->
<g id="edge56" class="edge">
<title>src/controllers/reviewController.ts&#45;&gt;src/components/review.ts</title>
<path fill="none" stroke="#55d7dc" d="M314.58,-345.62C306.18,-342.64 297.38,-339.77 289,-337.5 279.2,-334.84 250.52,-337.29 244,-329.5 203.32,-280.96 214.12,-242.84 244,-187 247.02,-181.35 251.25,-183.3 256,-179 263.77,-171.96 271.34,-163.4 277.8,-155.36"/>
<polygon fill="#55d7dc" stroke="#55d7dc" points="280.55,-157.54 283.91,-147.49 275.02,-153.24 280.55,-157.54"/>
</g>
<!-- src/errors/reviewError.ts -->
<g id="node26" class="node">
<title>src/errors/reviewError.ts</title>
<polygon fill="none" stroke="black" points="447.38,-24.5 447.38,-60.5 540.62,-60.5 540.62,-24.5 447.38,-24.5"/>
<text text-anchor="middle" x="494" y="-37.45" font-family="Times,serif" font-size="14.00">reviewError.ts</text>
</g>
<!-- src/controllers/reviewController.ts&#45;&gt;src/errors/reviewError.ts -->
<g id="edge57" class="edge">
<title>src/controllers/reviewController.ts&#45;&gt;src/errors/reviewError.ts</title>
<path fill="none" stroke="#55d7dc" d="M365.31,-345.82C387.59,-293.49 454.76,-135.69 482.16,-71.31"/>
<polygon fill="#55d7dc" stroke="#55d7dc" points="485.36,-72.73 486.06,-62.16 478.92,-69.99 485.36,-72.73"/>
</g>
<!-- src/dao/reviewDAO.ts&#45;&gt;src/components/user.ts -->
<g id="edge60" class="edge">
<title>src/dao/reviewDAO.ts&#45;&gt;src/components/user.ts</title>
<path fill="none" stroke="#ddb79a" d="M659.22,-262.38C656.11,-261.54 653.02,-260.73 650,-260 563.1,-238.84 528.96,-269.58 452,-224 433.78,-213.21 440.89,-196.57 422,-187 389.05,-170.31 288.46,-196.62 256,-179 246.44,-173.81 238.79,-164.85 233.05,-155.93"/>
<polygon fill="#ddb79a" stroke="#ddb79a" points="236.16,-154.32 228.13,-147.4 230.09,-157.81 236.16,-154.32"/>
</g>
<!-- src/dao/reviewDAO.ts&#45;&gt;src/db/db.ts -->
<g id="edge58" class="edge">
<title>src/dao/reviewDAO.ts&#45;&gt;src/db/db.ts</title>
<path fill="none" stroke="#ddb79a" d="M754.8,-260.61C771.36,-252.25 788.22,-240.36 798,-224 826.18,-176.89 819.09,-109.81 811.8,-72.1"/>
<polygon fill="#ddb79a" stroke="#ddb79a" points="815.25,-71.5 809.77,-62.43 808.39,-72.93 815.25,-71.5"/>
</g>
<!-- src/dao/reviewDAO.ts&#45;&gt;src/errors/productError.ts -->
<g id="edge62" class="edge">
<title>src/dao/reviewDAO.ts&#45;&gt;src/errors/productError.ts</title>
<path fill="none" stroke="#ddb79a" d="M659.21,-260.12C633.01,-249.52 604.38,-235.79 597,-224 567.65,-177.09 583.93,-109.2 596.92,-71.47"/>
<polygon fill="#ddb79a" stroke="#ddb79a" points="600.16,-72.8 600.28,-62.21 593.58,-70.42 600.16,-72.8"/>
</g>
<!-- src/dao/reviewDAO.ts&#45;&gt;src/components/review.ts -->
<g id="edge59" class="edge">
<title>src/dao/reviewDAO.ts&#45;&gt;src/components/review.ts</title>
<path fill="none" stroke="#ddb79a" d="M659.22,-260.04C608.09,-241.47 524.55,-211.48 452,-187 440.95,-183.27 438,-182.87 427,-179 397.89,-168.75 365.5,-156.3 340.33,-146.38"/>
<polygon fill="#ddb79a" stroke="#ddb79a" points="341.66,-143.14 331.07,-142.72 339.08,-149.65 341.66,-143.14"/>
</g>
<!-- src/dao/reviewDAO.ts&#45;&gt;src/errors/reviewError.ts -->
<g id="edge61" class="edge">
<title>src/dao/reviewDAO.ts&#45;&gt;src/errors/reviewError.ts</title>
<path fill="none" stroke="#ddb79a" d="M659.14,-261.56C628.06,-250.46 591.14,-235.61 579,-224 534.54,-181.47 510.86,-111.06 500.52,-71.94"/>
<polygon fill="#ddb79a" stroke="#ddb79a" points="503.94,-71.17 498.1,-62.33 497.15,-72.88 503.94,-71.17"/>
</g>
</g>
</svg>
